<svg id="vector" xmlns="http://www.w3.org/2000/svg" width="24" height="24" viewBox="0 0 960 960"><path fill="#e3e3e3" d="M160,340q0,31.15 11.65,61.04 11.66,29.88 40.97,68.04 29.3,38.15 78.77,90.58 49.46,52.42 125.46,129.03 4,4 8.5,2.5t5.5,-6.5L452.16,470h-20.78q-43.22,0 -68.99,-33.96 -25.77,-33.96 -14.08,-75.27l42.61,-149.16q-18.69,-9.53 -39.24,-15.57Q331.14,190 310,190q-62.14,0 -106.07,43.93Q160,277.86 160,340ZM799.23,340q0,-62.14 -43.93,-106.07Q711.37,190 649.23,190q-13.31,0 -26.23,2.46t-25.85,6.85L567.38,290h16.16q38.84,7.39 58.8,41.96 19.97,34.58 7.89,73.42l-69.31,227.7q-2,5.38 3.5,8.69 5.5,3.31 10.5,-1.69 64.23,-65.62 104.39,-109.85 40.15,-44.23 62.3,-76.77 22.16,-32.54 29.89,-58.23 7.73,-25.69 7.73,-55.23ZM650.23,405.38ZM348.31,360.77ZM455.05,796.69q-12.74,-5 -22.59,-14.23 -99.77,-92.15 -164.11,-156.31Q204,562 166.46,513.27q-37.54,-48.73 -52,-88.96T100,340.14q0,-87.88 61.09,-149.01Q222.18,130 310,130q61,0 107.54,22.62 46.54,22.61 33.69,66.76l-40.08,140.77q-5,19.24 5.37,34.54Q426.89,410 444.92,410h72.77l-24.07,246.4q-1,7.91 6.5,8.91t9.5,-6l79,-258.85q5.61,-19.23 -4.85,-34.85Q573.31,350 555.23,350h-72.15l56,-166.77q10.23,-31.92 42.73,-42.58Q614.31,130 649.23,130q87.77,0 149.27,61.09Q860,252.18 860,340q0,42.57 -16.39,84.17 -16.38,41.6 -54.73,92.25 -38.34,50.66 -101.77,114.62Q623.69,695 529,782.46q-9.81,9.62 -22.29,14.42 -12.48,4.81 -25.7,4.81 -13.21,0 -25.96,-5Z" id="path_0"/></svg>